<?xml version="1.0" encoding="UTF-8" standalone="no"?>
<!DOCTYPE svg PUBLIC "-//W3C//DTD SVG 1.1//EN"
 "http://www.w3.org/Graphics/SVG/1.1/DTD/svg11.dtd">
<!-- Generated by graphviz version 2.43.0 (0)
 -->
<!-- Title: Tree Pages: 1 -->
<svg width="2459pt" height="671pt"
 viewBox="0.00 0.00 2458.50 671.00" xmlns="http://www.w3.org/2000/svg" xmlns:xlink="http://www.w3.org/1999/xlink">
<g id="graph0" class="graph" transform="scale(1 1) rotate(0) translate(4 667)">
<title>Tree</title>
<polygon fill="white" stroke="transparent" points="-4,4 -4,-667 2454.5,-667 2454.5,4 -4,4"/>
<!-- 0 -->
<g id="node1" class="node">
<title>0</title>
<path fill="#cebb63" stroke="black" d="M1571.5,-663C1571.5,-663 1273.5,-663 1273.5,-663 1267.5,-663 1261.5,-657 1261.5,-651 1261.5,-651 1261.5,-592 1261.5,-592 1261.5,-586 1267.5,-580 1273.5,-580 1273.5,-580 1571.5,-580 1571.5,-580 1577.5,-580 1583.5,-586 1583.5,-592 1583.5,-592 1583.5,-651 1583.5,-651 1583.5,-657 1577.5,-663 1571.5,-663"/>
<text text-anchor="start" x="1269.5" y="-647.8" font-family="Helvetica,sans-Serif" font-size="14.00">Clinical Dementia Rating sum&#45;of&#45;boxes score ≤ 2.7</text>
<text text-anchor="start" x="1387" y="-632.8" font-family="Helvetica,sans-Serif" font-size="14.00">gini = 0.667</text>
<text text-anchor="start" x="1377.5" y="-617.8" font-family="Helvetica,sans-Serif" font-size="14.00">samples = 362</text>
<text text-anchor="start" x="1314" y="-602.8" font-family="Helvetica,sans-Serif" font-size="14.00">value = [120.667, 120.667, 120.667]</text>
<text text-anchor="start" x="1347" y="-587.8" font-family="Helvetica,sans-Serif" font-size="14.00">class = Cognitive Normal</text>
</g>
<!-- 1 -->
<g id="node2" class="node">
<title>1</title>
<path fill="#b3e863" stroke="black" d="M1353,-544C1353,-544 1014,-544 1014,-544 1008,-544 1002,-538 1002,-532 1002,-532 1002,-473 1002,-473 1002,-467 1008,-461 1014,-461 1014,-461 1353,-461 1353,-461 1359,-461 1365,-467 1365,-473 1365,-473 1365,-532 1365,-532 1365,-538 1359,-544 1353,-544"/>
<text text-anchor="start" x="1010" y="-528.8" font-family="Helvetica,sans-Serif" font-size="14.00">Baseline Logical Memory Delayed Recall total score ≤ 9.5</text>
<text text-anchor="start" x="1148" y="-513.8" font-family="Helvetica,sans-Serif" font-size="14.00">gini = 0.524</text>
<text text-anchor="start" x="1138.5" y="-498.8" font-family="Helvetica,sans-Serif" font-size="14.00">samples = 235</text>
<text text-anchor="start" x="1082.5" y="-483.8" font-family="Helvetica,sans-Serif" font-size="14.00">value = [119.036, 107.692, 5.983]</text>
<text text-anchor="start" x="1108" y="-468.8" font-family="Helvetica,sans-Serif" font-size="14.00">class = Cognitive Normal</text>
</g>
<!-- 0&#45;&gt;1 -->
<g id="edge1" class="edge">
<title>0&#45;&gt;1</title>
<path fill="none" stroke="black" d="M1339.58,-579.91C1318.82,-569.74 1296.42,-558.78 1275.26,-548.42"/>
<polygon fill="black" stroke="black" points="1276.79,-545.27 1266.27,-544.02 1273.72,-551.56 1276.79,-545.27"/>
<text text-anchor="middle" x="1274.38" y="-563.97" font-family="Helvetica,sans-Serif" font-size="14.00">True</text>
</g>
<!-- 16 -->
<g id="node17" class="node">
<title>16</title>
<path fill="#fd6962" stroke="black" d="M1861.5,-544C1861.5,-544 1499.5,-544 1499.5,-544 1493.5,-544 1487.5,-538 1487.5,-532 1487.5,-532 1487.5,-473 1487.5,-473 1487.5,-467 1493.5,-461 1499.5,-461 1499.5,-461 1861.5,-461 1861.5,-461 1867.5,-461 1873.5,-467 1873.5,-473 1873.5,-473 1873.5,-532 1873.5,-532 1873.5,-538 1867.5,-544 1861.5,-544"/>
<text text-anchor="start" x="1495.5" y="-528.8" font-family="Helvetica,sans-Serif" font-size="14.00">Everyday cognition: study partner&#45;reported total score ≤ 2.613</text>
<text text-anchor="start" x="1645" y="-513.8" font-family="Helvetica,sans-Serif" font-size="14.00">gini = 0.203</text>
<text text-anchor="start" x="1635.5" y="-498.8" font-family="Helvetica,sans-Serif" font-size="14.00">samples = 127</text>
<text text-anchor="start" x="1583" y="-483.8" font-family="Helvetica,sans-Serif" font-size="14.00">value = [1.631, 12.975, 114.683]</text>
<text text-anchor="start" x="1596" y="-468.8" font-family="Helvetica,sans-Serif" font-size="14.00">class = Alzheimer&#39;s Disease</text>
</g>
<!-- 0&#45;&gt;16 -->
<g id="edge16" class="edge">
<title>0&#45;&gt;16</title>
<path fill="none" stroke="black" d="M1512.01,-579.91C1534.53,-569.7 1558.81,-558.68 1581.75,-548.28"/>
<polygon fill="black" stroke="black" points="1583.48,-551.34 1591.15,-544.02 1580.59,-544.96 1583.48,-551.34"/>
<text text-anchor="middle" x="1582.35" y="-563.72" font-family="Helvetica,sans-Serif" font-size="14.00">False</text>
</g>
<!-- 2 -->
<g id="node3" class="node">
<title>2</title>
<path fill="#ece153" stroke="black" d="M781,-425C781,-425 476,-425 476,-425 470,-425 464,-419 464,-413 464,-413 464,-354 464,-354 464,-348 470,-342 476,-342 476,-342 781,-342 781,-342 787,-342 793,-348 793,-354 793,-354 793,-413 793,-413 793,-419 787,-425 781,-425"/>
<text text-anchor="start" x="472" y="-409.8" font-family="Helvetica,sans-Serif" font-size="14.00">Clinical Dementia Rating sum&#45;of&#45;boxes score ≤ 0.25</text>
<text text-anchor="start" x="593" y="-394.8" font-family="Helvetica,sans-Serif" font-size="14.00">gini = 0.303</text>
<text text-anchor="start" x="587.5" y="-379.8" font-family="Helvetica,sans-Serif" font-size="14.00">samples = 86</text>
<text text-anchor="start" x="535" y="-364.8" font-family="Helvetica,sans-Serif" font-size="14.00">value = [13.045, 84.337, 4.986]</text>
<text text-anchor="start" x="526" y="-349.8" font-family="Helvetica,sans-Serif" font-size="14.00">class = Mild Cognitive Impairment</text>
</g>
<!-- 1&#45;&gt;2 -->
<g id="edge2" class="edge">
<title>1&#45;&gt;2</title>
<path fill="none" stroke="black" d="M1001.77,-464.53C941.5,-452.14 874.09,-438.13 812.5,-425 809.48,-424.36 806.43,-423.7 803.36,-423.05"/>
<polygon fill="black" stroke="black" points="804,-419.6 793.49,-420.93 802.53,-426.45 804,-419.6"/>
</g>
<!-- 9 -->
<g id="node10" class="node">
<title>9</title>
<path fill="#87ee70" stroke="black" d="M1533.5,-425C1533.5,-425 833.5,-425 833.5,-425 827.5,-425 821.5,-419 821.5,-413 821.5,-413 821.5,-354 821.5,-354 821.5,-348 827.5,-342 833.5,-342 833.5,-342 1533.5,-342 1533.5,-342 1539.5,-342 1545.5,-348 1545.5,-354 1545.5,-354 1545.5,-413 1545.5,-413 1545.5,-419 1539.5,-425 1533.5,-425"/>
<text text-anchor="start" x="829.5" y="-409.8" font-family="Helvetica,sans-Serif" font-size="14.00">ADNI‐modified Preclinical Alzheimer&#39;s Cognitive Composite with the Trail Making Test Part B completion time ≤ &#45;3.007</text>
<text text-anchor="start" x="1148" y="-394.8" font-family="Helvetica,sans-Serif" font-size="14.00">gini = 0.307</text>
<text text-anchor="start" x="1138.5" y="-379.8" font-family="Helvetica,sans-Serif" font-size="14.00">samples = 149</text>
<text text-anchor="start" x="1086" y="-364.8" font-family="Helvetica,sans-Serif" font-size="14.00">value = [105.991, 23.355, 0.997]</text>
<text text-anchor="start" x="1108" y="-349.8" font-family="Helvetica,sans-Serif" font-size="14.00">class = Cognitive Normal</text>
</g>
<!-- 1&#45;&gt;9 -->
<g id="edge9" class="edge">
<title>1&#45;&gt;9</title>
<path fill="none" stroke="black" d="M1183.5,-460.91C1183.5,-452.65 1183.5,-443.86 1183.5,-435.3"/>
<polygon fill="black" stroke="black" points="1187,-435.02 1183.5,-425.02 1180,-435.02 1187,-435.02"/>
</g>
<!-- 3 -->
<g id="node4" class="node">
<title>3</title>
<path fill="#c0eb5f" stroke="black" d="M209,-298.5C209,-298.5 12,-298.5 12,-298.5 6,-298.5 0,-292.5 0,-286.5 0,-286.5 0,-242.5 0,-242.5 0,-236.5 6,-230.5 12,-230.5 12,-230.5 209,-230.5 209,-230.5 215,-230.5 221,-236.5 221,-242.5 221,-242.5 221,-286.5 221,-286.5 221,-292.5 215,-298.5 209,-298.5"/>
<text text-anchor="start" x="75" y="-283.3" font-family="Helvetica,sans-Serif" font-size="14.00">gini = 0.489</text>
<text text-anchor="start" x="69.5" y="-268.3" font-family="Helvetica,sans-Serif" font-size="14.00">samples = 24</text>
<text text-anchor="start" x="24.5" y="-253.3" font-family="Helvetica,sans-Serif" font-size="14.00">value = [10.599, 14.272, 0.0]</text>
<text text-anchor="start" x="8" y="-238.3" font-family="Helvetica,sans-Serif" font-size="14.00">class = Mild Cognitive Impairment</text>
</g>
<!-- 2&#45;&gt;3 -->
<g id="edge3" class="edge">
<title>2&#45;&gt;3</title>
<path fill="none" stroke="black" d="M463.79,-356.21C391.4,-343.3 305.7,-326.17 229.5,-306 224.23,-304.6 218.85,-303.09 213.43,-301.51"/>
<polygon fill="black" stroke="black" points="214.25,-298.1 203.67,-298.57 212.24,-304.8 214.25,-298.1"/>
</g>
<!-- 4 -->
<g id="node5" class="node">
<title>4</title>
<path fill="#fade4f" stroke="black" d="M1006,-306C1006,-306 251,-306 251,-306 245,-306 239,-300 239,-294 239,-294 239,-235 239,-235 239,-229 245,-223 251,-223 251,-223 1006,-223 1006,-223 1012,-223 1018,-229 1018,-235 1018,-235 1018,-294 1018,-294 1018,-300 1012,-306 1006,-306"/>
<text text-anchor="start" x="247" y="-290.8" font-family="Helvetica,sans-Serif" font-size="14.00">Baseline ADNI‐modified Preclinical Alzheimer&#39;s Cognitive Composite with the Trail Making Test Part B completion time ≤ &#45;6.739</text>
<text text-anchor="start" x="593" y="-275.8" font-family="Helvetica,sans-Serif" font-size="14.00">gini = 0.177</text>
<text text-anchor="start" x="587.5" y="-260.8" font-family="Helvetica,sans-Serif" font-size="14.00">samples = 62</text>
<text text-anchor="start" x="538.5" y="-245.8" font-family="Helvetica,sans-Serif" font-size="14.00">value = [2.446, 70.065, 4.986]</text>
<text text-anchor="start" x="526" y="-230.8" font-family="Helvetica,sans-Serif" font-size="14.00">class = Mild Cognitive Impairment</text>
</g>
<!-- 2&#45;&gt;4 -->
<g id="edge4" class="edge">
<title>2&#45;&gt;4</title>
<path fill="none" stroke="black" d="M628.5,-341.91C628.5,-333.65 628.5,-324.86 628.5,-316.3"/>
<polygon fill="black" stroke="black" points="632,-316.02 628.5,-306.02 625,-316.02 632,-316.02"/>
</g>
<!-- 5 -->
<g id="node6" class="node">
<title>5</title>
<path fill="#fac853" stroke="black" d="M526,-179.5C526,-179.5 329,-179.5 329,-179.5 323,-179.5 317,-173.5 317,-167.5 317,-167.5 317,-123.5 317,-123.5 317,-117.5 323,-111.5 329,-111.5 329,-111.5 526,-111.5 526,-111.5 532,-111.5 538,-117.5 538,-123.5 538,-123.5 538,-167.5 538,-167.5 538,-173.5 532,-179.5 526,-179.5"/>
<text text-anchor="start" x="392" y="-164.3" font-family="Helvetica,sans-Serif" font-size="14.00">gini = 0.397</text>
<text text-anchor="start" x="386.5" y="-149.3" font-family="Helvetica,sans-Serif" font-size="14.00">samples = 19</text>
<text text-anchor="start" x="337.5" y="-134.3" font-family="Helvetica,sans-Serif" font-size="14.00">value = [0.815, 16.867, 4.986]</text>
<text text-anchor="start" x="325" y="-119.3" font-family="Helvetica,sans-Serif" font-size="14.00">class = Mild Cognitive Impairment</text>
</g>
<!-- 4&#45;&gt;5 -->
<g id="edge5" class="edge">
<title>4&#45;&gt;5</title>
<path fill="none" stroke="black" d="M558.76,-222.91C537.53,-210.55 514.27,-197.01 493.31,-184.81"/>
<polygon fill="black" stroke="black" points="494.88,-181.67 484.48,-179.67 491.36,-187.72 494.88,-181.67"/>
</g>
<!-- 6 -->
<g id="node7" class="node">
<title>6</title>
<path fill="#fbe74d" stroke="black" d="M1147,-187C1147,-187 568,-187 568,-187 562,-187 556,-181 556,-175 556,-175 556,-116 556,-116 556,-110 562,-104 568,-104 568,-104 1147,-104 1147,-104 1153,-104 1159,-110 1159,-116 1159,-116 1159,-175 1159,-175 1159,-181 1153,-187 1147,-187"/>
<text text-anchor="start" x="564" y="-171.8" font-family="Helvetica,sans-Serif" font-size="14.00">Volume in cubic millimeters of the lingual subcortical structure in the right hemisphere. ≤ 5266.493</text>
<text text-anchor="start" x="822" y="-156.8" font-family="Helvetica,sans-Serif" font-size="14.00">gini = 0.058</text>
<text text-anchor="start" x="816.5" y="-141.8" font-family="Helvetica,sans-Serif" font-size="14.00">samples = 43</text>
<text text-anchor="start" x="775" y="-126.8" font-family="Helvetica,sans-Serif" font-size="14.00">value = [1.631, 53.197, 0.0]</text>
<text text-anchor="start" x="755" y="-111.8" font-family="Helvetica,sans-Serif" font-size="14.00">class = Mild Cognitive Impairment</text>
</g>
<!-- 4&#45;&gt;6 -->
<g id="edge6" class="edge">
<title>4&#45;&gt;6</title>
<path fill="none" stroke="black" d="M707.95,-222.91C727.67,-212.83 748.92,-201.98 769.04,-191.7"/>
<polygon fill="black" stroke="black" points="770.88,-194.69 778.19,-187.02 767.69,-188.45 770.88,-194.69"/>
</g>
<!-- 7 -->
<g id="node8" class="node">
<title>7</title>
<path fill="#f5e84f" stroke="black" d="M836,-68C836,-68 639,-68 639,-68 633,-68 627,-62 627,-56 627,-56 627,-12 627,-12 627,-6 633,0 639,0 639,0 836,0 836,0 842,0 848,-6 848,-12 848,-12 848,-56 848,-56 848,-62 842,-68 836,-68"/>
<text text-anchor="start" x="702" y="-52.8" font-family="Helvetica,sans-Serif" font-size="14.00">gini = 0.128</text>
<text text-anchor="start" x="696.5" y="-37.8" font-family="Helvetica,sans-Serif" font-size="14.00">samples = 19</text>
<text text-anchor="start" x="655" y="-22.8" font-family="Helvetica,sans-Serif" font-size="14.00">value = [1.631, 22.057, 0.0]</text>
<text text-anchor="start" x="635" y="-7.8" font-family="Helvetica,sans-Serif" font-size="14.00">class = Mild Cognitive Impairment</text>
</g>
<!-- 6&#45;&gt;7 -->
<g id="edge7" class="edge">
<title>6&#45;&gt;7</title>
<path fill="none" stroke="black" d="M812.82,-103.73C802.62,-94.42 791.79,-84.54 781.62,-75.26"/>
<polygon fill="black" stroke="black" points="783.74,-72.45 773.99,-68.3 779.02,-77.63 783.74,-72.45"/>
</g>
<!-- 8 -->
<g id="node9" class="node">
<title>8</title>
<path fill="#ffe74c" stroke="black" d="M1075,-68C1075,-68 878,-68 878,-68 872,-68 866,-62 866,-56 866,-56 866,-12 866,-12 866,-6 872,0 878,0 878,0 1075,0 1075,0 1081,0 1087,-6 1087,-12 1087,-12 1087,-56 1087,-56 1087,-62 1081,-68 1075,-68"/>
<text text-anchor="start" x="948.5" y="-52.8" font-family="Helvetica,sans-Serif" font-size="14.00">gini = 0.0</text>
<text text-anchor="start" x="935.5" y="-37.8" font-family="Helvetica,sans-Serif" font-size="14.00">samples = 24</text>
<text text-anchor="start" x="905.5" y="-22.8" font-family="Helvetica,sans-Serif" font-size="14.00">value = [0.0, 31.14, 0.0]</text>
<text text-anchor="start" x="874" y="-7.8" font-family="Helvetica,sans-Serif" font-size="14.00">class = Mild Cognitive Impairment</text>
</g>
<!-- 6&#45;&gt;8 -->
<g id="edge8" class="edge">
<title>6&#45;&gt;8</title>
<path fill="none" stroke="black" d="M901.81,-103.73C911.92,-94.42 922.66,-84.54 932.75,-75.26"/>
<polygon fill="black" stroke="black" points="935.32,-77.65 940.31,-68.3 930.58,-72.5 935.32,-77.65"/>
</g>
<!-- 10 -->
<g id="node11" class="node">
<title>10</title>
<path fill="#c6eb5d" stroke="black" d="M1245,-298.5C1245,-298.5 1048,-298.5 1048,-298.5 1042,-298.5 1036,-292.5 1036,-286.5 1036,-286.5 1036,-242.5 1036,-242.5 1036,-236.5 1042,-230.5 1048,-230.5 1048,-230.5 1245,-230.5 1245,-230.5 1251,-230.5 1257,-236.5 1257,-242.5 1257,-242.5 1257,-286.5 1257,-286.5 1257,-292.5 1251,-298.5 1245,-298.5"/>
<text text-anchor="start" x="1111" y="-283.3" font-family="Helvetica,sans-Serif" font-size="14.00">gini = 0.474</text>
<text text-anchor="start" x="1105.5" y="-268.3" font-family="Helvetica,sans-Serif" font-size="14.00">samples = 26</text>
<text text-anchor="start" x="1060.5" y="-253.3" font-family="Helvetica,sans-Serif" font-size="14.00">value = [10.599, 16.867, 0.0]</text>
<text text-anchor="start" x="1044" y="-238.3" font-family="Helvetica,sans-Serif" font-size="14.00">class = Mild Cognitive Impairment</text>
</g>
<!-- 9&#45;&gt;10 -->
<g id="edge10" class="edge">
<title>9&#45;&gt;10</title>
<path fill="none" stroke="black" d="M1170.66,-341.91C1167.24,-331.09 1163.54,-319.38 1160.08,-308.44"/>
<polygon fill="black" stroke="black" points="1163.34,-307.15 1156.99,-298.67 1156.67,-309.26 1163.34,-307.15"/>
</g>
<!-- 11 -->
<g id="node12" class="node">
<title>11</title>
<path fill="#76ef75" stroke="black" d="M2000,-306C2000,-306 1287,-306 1287,-306 1281,-306 1275,-300 1275,-294 1275,-294 1275,-235 1275,-235 1275,-229 1281,-223 1287,-223 1287,-223 2000,-223 2000,-223 2006,-223 2012,-229 2012,-235 2012,-235 2012,-294 2012,-294 2012,-300 2006,-306 2000,-306"/>
<text text-anchor="start" x="1283" y="-290.8" font-family="Helvetica,sans-Serif" font-size="14.00">Standard deviation of the normalized intensity of the choroid plexus subcortical structure in the left hemisphere. ≤ 10.857</text>
<text text-anchor="start" x="1608" y="-275.8" font-family="Helvetica,sans-Serif" font-size="14.00">gini = 0.136</text>
<text text-anchor="start" x="1598.5" y="-260.8" font-family="Helvetica,sans-Serif" font-size="14.00">samples = 123</text>
<text text-anchor="start" x="1553.5" y="-245.8" font-family="Helvetica,sans-Serif" font-size="14.00">value = [95.392, 6.487, 0.997]</text>
<text text-anchor="start" x="1568" y="-230.8" font-family="Helvetica,sans-Serif" font-size="14.00">class = Cognitive Normal</text>
</g>
<!-- 9&#45;&gt;11 -->
<g id="edge11" class="edge">
<title>9&#45;&gt;11</title>
<path fill="none" stroke="black" d="M1342.77,-341.99C1385.25,-331.19 1431.29,-319.48 1474.28,-308.54"/>
<polygon fill="black" stroke="black" points="1475.15,-311.93 1483.98,-306.07 1473.42,-305.15 1475.15,-311.93"/>
</g>
<!-- 12 -->
<g id="node13" class="node">
<title>12</title>
<path fill="#91ee6d" stroke="black" d="M1433,-179.5C1433,-179.5 1276,-179.5 1276,-179.5 1270,-179.5 1264,-173.5 1264,-167.5 1264,-167.5 1264,-123.5 1264,-123.5 1264,-117.5 1270,-111.5 1276,-111.5 1276,-111.5 1433,-111.5 1433,-111.5 1439,-111.5 1445,-117.5 1445,-123.5 1445,-123.5 1445,-167.5 1445,-167.5 1445,-173.5 1439,-179.5 1433,-179.5"/>
<text text-anchor="start" x="1319" y="-164.3" font-family="Helvetica,sans-Serif" font-size="14.00">gini = 0.382</text>
<text text-anchor="start" x="1313.5" y="-149.3" font-family="Helvetica,sans-Serif" font-size="14.00">samples = 28</text>
<text text-anchor="start" x="1272" y="-134.3" font-family="Helvetica,sans-Serif" font-size="14.00">value = [18.752, 6.487, 0.0]</text>
<text text-anchor="start" x="1279" y="-119.3" font-family="Helvetica,sans-Serif" font-size="14.00">class = Cognitive Normal</text>
</g>
<!-- 11&#45;&gt;12 -->
<g id="edge12" class="edge">
<title>11&#45;&gt;12</title>
<path fill="none" stroke="black" d="M1542.39,-222.91C1513.65,-211.34 1482.33,-198.7 1453.5,-187 1450.62,-185.83 1447.7,-184.65 1444.75,-183.45"/>
<polygon fill="black" stroke="black" points="1445.84,-180.11 1435.26,-179.58 1443.2,-186.59 1445.84,-180.11"/>
</g>
<!-- 13 -->
<g id="node14" class="node">
<title>13</title>
<path fill="#6def78" stroke="black" d="M2216.5,-187C2216.5,-187 1474.5,-187 1474.5,-187 1468.5,-187 1462.5,-181 1462.5,-175 1462.5,-175 1462.5,-116 1462.5,-116 1462.5,-110 1468.5,-104 1474.5,-104 1474.5,-104 2216.5,-104 2216.5,-104 2222.5,-104 2228.5,-110 2228.5,-116 2228.5,-116 2228.5,-175 2228.5,-175 2228.5,-181 2222.5,-187 2216.5,-187"/>
<text text-anchor="start" x="1470.5" y="-171.8" font-family="Helvetica,sans-Serif" font-size="14.00">Standard deviation of the normalized intensity of the transversetemporal subcortical structure in the left hemisphere. ≤ 11.766</text>
<text text-anchor="start" x="1810" y="-156.8" font-family="Helvetica,sans-Serif" font-size="14.00">gini = 0.025</text>
<text text-anchor="start" x="1804.5" y="-141.8" font-family="Helvetica,sans-Serif" font-size="14.00">samples = 95</text>
<text text-anchor="start" x="1767" y="-126.8" font-family="Helvetica,sans-Serif" font-size="14.00">value = [76.64, 0.0, 0.997]</text>
<text text-anchor="start" x="1770" y="-111.8" font-family="Helvetica,sans-Serif" font-size="14.00">class = Cognitive Normal</text>
</g>
<!-- 11&#45;&gt;13 -->
<g id="edge13" class="edge">
<title>11&#45;&gt;13</title>
<path fill="none" stroke="black" d="M1713.58,-222.91C1730.66,-213.02 1749.04,-202.37 1766.51,-192.25"/>
<polygon fill="black" stroke="black" points="1768.64,-195.06 1775.54,-187.02 1765.13,-189 1768.64,-195.06"/>
</g>
<!-- 14 -->
<g id="node15" class="node">
<title>14</title>
<path fill="#6bf178" stroke="black" d="M1821,-68C1821,-68 1678,-68 1678,-68 1672,-68 1666,-62 1666,-56 1666,-56 1666,-12 1666,-12 1666,-6 1672,0 1678,0 1678,0 1821,0 1821,0 1827,0 1833,-6 1833,-12 1833,-12 1833,-56 1833,-56 1833,-62 1827,-68 1821,-68"/>
<text text-anchor="start" x="1721.5" y="-52.8" font-family="Helvetica,sans-Serif" font-size="14.00">gini = 0.0</text>
<text text-anchor="start" x="1708.5" y="-37.8" font-family="Helvetica,sans-Serif" font-size="14.00">samples = 76</text>
<text text-anchor="start" x="1674.5" y="-22.8" font-family="Helvetica,sans-Serif" font-size="14.00">value = [61.964, 0.0, 0.0]</text>
<text text-anchor="start" x="1674" y="-7.8" font-family="Helvetica,sans-Serif" font-size="14.00">class = Cognitive Normal</text>
</g>
<!-- 13&#45;&gt;14 -->
<g id="edge14" class="edge">
<title>13&#45;&gt;14</title>
<path fill="none" stroke="black" d="M1809.75,-103.73C1801.84,-94.7 1793.44,-85.12 1785.52,-76.08"/>
<polygon fill="black" stroke="black" points="1787.92,-73.51 1778.69,-68.3 1782.65,-78.13 1787.92,-73.51"/>
</g>
<!-- 15 -->
<g id="node16" class="node">
<title>15</title>
<path fill="#74e777" stroke="black" d="M2020,-68C2020,-68 1863,-68 1863,-68 1857,-68 1851,-62 1851,-56 1851,-56 1851,-12 1851,-12 1851,-6 1857,0 1863,0 1863,0 2020,0 2020,0 2026,0 2032,-6 2032,-12 2032,-12 2032,-56 2032,-56 2032,-62 2026,-68 2020,-68"/>
<text text-anchor="start" x="1906" y="-52.8" font-family="Helvetica,sans-Serif" font-size="14.00">gini = 0.119</text>
<text text-anchor="start" x="1900.5" y="-37.8" font-family="Helvetica,sans-Serif" font-size="14.00">samples = 19</text>
<text text-anchor="start" x="1859" y="-22.8" font-family="Helvetica,sans-Serif" font-size="14.00">value = [14.676, 0.0, 0.997]</text>
<text text-anchor="start" x="1866" y="-7.8" font-family="Helvetica,sans-Serif" font-size="14.00">class = Cognitive Normal</text>
</g>
<!-- 13&#45;&gt;15 -->
<g id="edge15" class="edge">
<title>13&#45;&gt;15</title>
<path fill="none" stroke="black" d="M1881.25,-103.73C1889.16,-94.7 1897.56,-85.12 1905.48,-76.08"/>
<polygon fill="black" stroke="black" points="1908.35,-78.13 1912.31,-68.3 1903.08,-73.51 1908.35,-78.13"/>
</g>
<!-- 17 -->
<g id="node18" class="node">
<title>17</title>
<path fill="#fa965b" stroke="black" d="M1766.5,-417.5C1766.5,-417.5 1594.5,-417.5 1594.5,-417.5 1588.5,-417.5 1582.5,-411.5 1582.5,-405.5 1582.5,-405.5 1582.5,-361.5 1582.5,-361.5 1582.5,-355.5 1588.5,-349.5 1594.5,-349.5 1594.5,-349.5 1766.5,-349.5 1766.5,-349.5 1772.5,-349.5 1778.5,-355.5 1778.5,-361.5 1778.5,-361.5 1778.5,-405.5 1778.5,-405.5 1778.5,-411.5 1772.5,-417.5 1766.5,-417.5"/>
<text text-anchor="start" x="1645" y="-402.3" font-family="Helvetica,sans-Serif" font-size="14.00">gini = 0.514</text>
<text text-anchor="start" x="1639.5" y="-387.3" font-family="Helvetica,sans-Serif" font-size="14.00">samples = 24</text>
<text text-anchor="start" x="1590.5" y="-372.3" font-family="Helvetica,sans-Serif" font-size="14.00">value = [0.815, 10.38, 14.959]</text>
<text text-anchor="start" x="1596" y="-357.3" font-family="Helvetica,sans-Serif" font-size="14.00">class = Alzheimer&#39;s Disease</text>
</g>
<!-- 16&#45;&gt;17 -->
<g id="edge17" class="edge">
<title>16&#45;&gt;17</title>
<path fill="none" stroke="black" d="M1680.5,-460.91C1680.5,-450.2 1680.5,-438.62 1680.5,-427.78"/>
<polygon fill="black" stroke="black" points="1684,-427.67 1680.5,-417.67 1677,-427.67 1684,-427.67"/>
</g>
<!-- 18 -->
<g id="node19" class="node">
<title>18</title>
<path fill="#fe5e64" stroke="black" d="M2438.5,-425C2438.5,-425 1818.5,-425 1818.5,-425 1812.5,-425 1806.5,-419 1806.5,-413 1806.5,-413 1806.5,-354 1806.5,-354 1806.5,-348 1812.5,-342 1818.5,-342 1818.5,-342 2438.5,-342 2438.5,-342 2444.5,-342 2450.5,-348 2450.5,-354 2450.5,-354 2450.5,-413 2450.5,-413 2450.5,-419 2444.5,-425 2438.5,-425"/>
<text text-anchor="start" x="1814.5" y="-409.8" font-family="Helvetica,sans-Serif" font-size="14.00">Standard deviation of the normalized intensity of the Cerebellum region in the right hemisphere. ≤ 10.772</text>
<text text-anchor="start" x="2093" y="-394.8" font-family="Helvetica,sans-Serif" font-size="14.00">gini = 0.064</text>
<text text-anchor="start" x="2083.5" y="-379.8" font-family="Helvetica,sans-Serif" font-size="14.00">samples = 103</text>
<text text-anchor="start" x="2038.5" y="-364.8" font-family="Helvetica,sans-Serif" font-size="14.00">value = [0.815, 2.595, 99.725]</text>
<text text-anchor="start" x="2044" y="-349.8" font-family="Helvetica,sans-Serif" font-size="14.00">class = Alzheimer&#39;s Disease</text>
</g>
<!-- 16&#45;&gt;18 -->
<g id="edge18" class="edge">
<title>16&#45;&gt;18</title>
<path fill="none" stroke="black" d="M1835.62,-460.99C1876.9,-450.21 1921.64,-438.52 1963.43,-427.61"/>
<polygon fill="black" stroke="black" points="1964.35,-430.99 1973.14,-425.07 1962.58,-424.22 1964.35,-430.99"/>
</g>
<!-- 19 -->
<g id="node20" class="node">
<title>19</title>
<path fill="#fa6e62" stroke="black" d="M2214.5,-298.5C2214.5,-298.5 2042.5,-298.5 2042.5,-298.5 2036.5,-298.5 2030.5,-292.5 2030.5,-286.5 2030.5,-286.5 2030.5,-242.5 2030.5,-242.5 2030.5,-236.5 2036.5,-230.5 2042.5,-230.5 2042.5,-230.5 2214.5,-230.5 2214.5,-230.5 2220.5,-230.5 2226.5,-236.5 2226.5,-242.5 2226.5,-242.5 2226.5,-286.5 2226.5,-286.5 2226.5,-292.5 2220.5,-298.5 2214.5,-298.5"/>
<text text-anchor="start" x="2093" y="-283.3" font-family="Helvetica,sans-Serif" font-size="14.00">gini = 0.257</text>
<text text-anchor="start" x="2087.5" y="-268.3" font-family="Helvetica,sans-Serif" font-size="14.00">samples = 23</text>
<text text-anchor="start" x="2038.5" y="-253.3" font-family="Helvetica,sans-Serif" font-size="14.00">value = [0.815, 2.595, 19.945]</text>
<text text-anchor="start" x="2044" y="-238.3" font-family="Helvetica,sans-Serif" font-size="14.00">class = Alzheimer&#39;s Disease</text>
</g>
<!-- 18&#45;&gt;19 -->
<g id="edge19" class="edge">
<title>18&#45;&gt;19</title>
<path fill="none" stroke="black" d="M2128.5,-341.91C2128.5,-331.2 2128.5,-319.62 2128.5,-308.78"/>
<polygon fill="black" stroke="black" points="2132,-308.67 2128.5,-298.67 2125,-308.67 2132,-308.67"/>
</g>
<!-- 20 -->
<g id="node21" class="node">
<title>20</title>
<path fill="#ff5964" stroke="black" d="M2417,-298.5C2417,-298.5 2256,-298.5 2256,-298.5 2250,-298.5 2244,-292.5 2244,-286.5 2244,-286.5 2244,-242.5 2244,-242.5 2244,-236.5 2250,-230.5 2256,-230.5 2256,-230.5 2417,-230.5 2417,-230.5 2423,-230.5 2429,-236.5 2429,-242.5 2429,-242.5 2429,-286.5 2429,-286.5 2429,-292.5 2423,-298.5 2417,-298.5"/>
<text text-anchor="start" x="2308.5" y="-283.3" font-family="Helvetica,sans-Serif" font-size="14.00">gini = 0.0</text>
<text text-anchor="start" x="2295.5" y="-268.3" font-family="Helvetica,sans-Serif" font-size="14.00">samples = 80</text>
<text text-anchor="start" x="2265.5" y="-253.3" font-family="Helvetica,sans-Serif" font-size="14.00">value = [0.0, 0.0, 79.78]</text>
<text text-anchor="start" x="2252" y="-238.3" font-family="Helvetica,sans-Serif" font-size="14.00">class = Alzheimer&#39;s Disease</text>
</g>
<!-- 18&#45;&gt;20 -->
<g id="edge20" class="edge">
<title>18&#45;&gt;20</title>
<path fill="none" stroke="black" d="M2200.66,-341.91C2222.73,-329.49 2246.92,-315.89 2268.69,-303.64"/>
<polygon fill="black" stroke="black" points="2270.54,-306.62 2277.54,-298.67 2267.1,-300.52 2270.54,-306.62"/>
</g>
</g>
</svg>
